<svg width="1208" height="193" viewBox="0 0 1208 193" fill="none" xmlns="http://www.w3.org/2000/svg">
<path fill-rule="evenodd" clip-rule="evenodd" d="M182.312 18.7222H52.3974L16.5 112.739H56.9973L74.6196 66.5856H164.037L182.312 18.7222Z" fill="white"/>
<path d="M86.5849 80.2605H216.499L180.602 174.278H50.6875L86.5849 80.2605Z" fill="#15BFFD"/>
<path d="M286.03 142.5L266.53 58.78H287.07L298.12 109.22L309.56 70.61V58.78H326.72L341.15 109.35L352.72 58.78H373.26L353.89 142.5H334.52L320.48 94.14L305.4 142.5H286.03ZM379.325 142.5V54.88H400.255V85.43C402.595 83.6967 405.499 82.31 408.965 81.27C412.432 80.1433 416.159 79.58 420.145 79.58C428.379 79.58 434.402 81.53 438.215 85.43C442.115 89.33 444.065 95.31 444.065 103.37V142.5H423.135V104.8C423.135 101.247 422.399 98.7333 420.925 97.26C419.452 95.7867 416.809 95.05 412.995 95.05C410.742 95.05 408.445 95.57 406.105 96.61C403.765 97.65 401.815 98.95 400.255 100.51V142.5H379.325ZM460.8 71.13V55.4H483.55V71.13H460.8ZM462.49 142.5V96.35H453.39L455.21 80.88H483.42V142.5H462.49ZM522.107 143.8C514.48 143.8 508.847 141.85 505.207 137.95C501.654 134.05 499.877 128.677 499.877 121.83V96.74H491.557V80.88H499.877V68.01L520.807 62.42V80.88H535.757L534.847 96.74H520.807V120.4C520.807 123.347 521.544 125.427 523.017 126.64C524.49 127.767 526.7 128.33 529.647 128.33C532.16 128.33 534.717 127.897 537.317 127.03V141.2C533.244 142.933 528.174 143.8 522.107 143.8ZM578.4 143.8C567.653 143.8 559.03 141.157 552.53 135.87C546.03 130.497 542.78 122.437 542.78 111.69C542.78 101.897 545.467 94.0967 550.84 88.29C556.213 82.4833 564.273 79.58 575.02 79.58C584.813 79.58 592.397 82.0933 597.77 87.12C603.143 92.1467 605.83 98.9067 605.83 107.4V118.45H562.15C563.103 122.523 565.313 125.383 568.78 127.03C572.333 128.59 577.143 129.37 583.21 129.37C586.59 129.37 590.013 129.067 593.48 128.46C597.033 127.853 599.98 127.073 602.32 126.12V139.77C599.373 141.157 595.863 142.153 591.79 142.76C587.717 143.453 583.253 143.8 578.4 143.8ZM562.15 106.36H587.63V103.63C587.63 100.597 586.72 98.2133 584.9 96.48C583.08 94.66 580.003 93.75 575.67 93.75C570.643 93.75 567.133 94.79 565.14 96.87C563.147 98.8633 562.15 102.027 562.15 106.36Z" fill="white"/>
<path d="M616.474 142.5V58.78H660.674C669.08 58.78 675.407 60.7733 679.654 64.76C683.987 68.7467 686.154 74.38 686.154 81.66C686.154 86.08 685.287 89.8067 683.554 92.84C681.907 95.7867 679.697 98.0833 676.924 99.73C680.737 101.117 683.727 103.153 685.894 105.84C688.06 108.527 689.144 112.557 689.144 117.93C689.144 125.903 686.804 132.013 682.124 136.26C677.444 140.42 670.727 142.5 661.974 142.5H616.474ZM637.404 92.84H654.434C658.074 92.84 660.717 92.0167 662.364 90.37C664.01 88.7233 664.834 86.4267 664.834 83.48C664.834 80.2733 664.01 77.89 662.364 76.33C660.717 74.6833 657.727 73.86 653.394 73.86H637.404V92.84ZM637.404 127.55H656.514C660.327 127.55 663.144 126.77 664.964 125.21C666.87 123.65 667.824 120.877 667.824 116.89C667.824 113.683 666.914 111.3 665.094 109.74C663.274 108.093 660.154 107.27 655.734 107.27H637.404V127.55ZM718.735 143.8C711.975 143.8 707.122 142.327 704.175 139.38C701.228 136.433 699.755 131.71 699.755 125.21V54.88H720.685V123.13C720.685 125.123 721.075 126.51 721.855 127.29C722.722 127.983 723.978 128.33 725.625 128.33C727.965 128.33 730.045 128.027 731.865 127.42V141.59C729.872 142.37 727.878 142.933 725.885 143.28C723.978 143.627 721.595 143.8 718.735 143.8ZM757.634 143.8C750.354 143.8 744.678 141.763 740.604 137.69C736.531 133.53 734.494 127.507 734.494 119.62V80.88H755.424V118.45C755.424 121.917 756.248 124.473 757.894 126.12C759.628 127.68 762.184 128.46 765.564 128.46C768.078 128.46 770.461 127.94 772.714 126.9C774.968 125.86 776.831 124.56 778.304 123V80.88H799.234V142.5H779.734L779.084 137.3C776.571 139.207 773.538 140.767 769.984 141.98C766.431 143.193 762.314 143.8 757.634 143.8ZM845.509 143.8C834.763 143.8 826.139 141.157 819.639 135.87C813.139 130.497 809.889 122.437 809.889 111.69C809.889 101.897 812.576 94.0967 817.949 88.29C823.323 82.4833 831.383 79.58 842.129 79.58C851.923 79.58 859.506 82.0933 864.879 87.12C870.253 92.1467 872.939 98.9067 872.939 107.4V118.45H829.259C830.213 122.523 832.423 125.383 835.889 127.03C839.443 128.59 844.253 129.37 850.319 129.37C853.699 129.37 857.123 129.067 860.589 128.46C864.143 127.853 867.089 127.073 869.429 126.12V139.77C866.483 141.157 862.973 142.153 858.899 142.76C854.826 143.453 850.363 143.8 845.509 143.8ZM829.259 106.36H854.739V103.63C854.739 100.597 853.829 98.2133 852.009 96.48C850.189 94.66 847.113 93.75 842.779 93.75C837.753 93.75 834.243 94.79 832.249 96.87C830.256 98.8633 829.259 102.027 829.259 106.36ZM910.233 143.8C904.686 143.8 899.486 143.367 894.633 142.5C889.866 141.72 885.75 140.55 882.283 138.99V121.18C886.096 122.827 890.3 124.17 894.893 125.21C899.573 126.25 903.993 126.77 908.153 126.77C913.353 126.77 917.21 126.293 919.723 125.34C922.323 124.387 923.623 122.307 923.623 119.1C923.623 116.933 922.973 115.2 921.673 113.9C920.46 112.6 918.423 111.473 915.563 110.52C912.79 109.48 908.976 108.267 904.123 106.88C898.403 105.147 893.853 103.24 890.473 101.16C887.093 98.9933 884.666 96.3933 883.193 93.36C881.72 90.3267 880.983 86.6 880.983 82.18C880.983 74.2067 883.843 68.0967 889.563 63.85C895.283 59.6033 903.733 57.48 914.913 57.48C919.766 57.48 924.49 57.87 929.083 58.65C933.676 59.3433 937.403 60.1667 940.263 61.12V79.06C936.536 77.5867 932.766 76.5033 928.953 75.81C925.226 75.1167 921.586 74.77 918.033 74.77C913.353 74.77 909.54 75.2033 906.593 76.07C903.733 76.9367 902.303 78.93 902.303 82.05C902.303 83.87 902.823 85.3433 903.863 86.47C904.903 87.51 906.68 88.4633 909.193 89.33C911.793 90.1967 915.303 91.2367 919.723 92.45C926.57 94.27 931.813 96.48 935.453 99.08C939.093 101.593 941.606 104.54 942.993 107.92C944.38 111.213 945.073 114.94 945.073 119.1C945.073 126.467 942.213 132.447 936.493 137.04C930.773 141.547 922.02 143.8 910.233 143.8ZM966.042 142.5L949.792 80.88H970.332L978.652 116.24L987.362 89.33V80.88H1003.09L1013.23 116.24L1021.29 80.88H1041.83L1025.58 142.5H1006.6L996.072 110.52L985.282 142.5H966.042ZM1065.83 143.8C1061.93 143.8 1058.29 143.107 1054.91 141.72C1051.62 140.333 1048.97 138.21 1046.98 135.35C1044.99 132.403 1043.99 128.763 1043.99 124.43C1043.99 118.103 1046.11 113.163 1050.36 109.61C1054.69 105.97 1061.15 104.15 1069.73 104.15H1086.89V102.72C1086.89 99.6 1085.85 97.39 1083.77 96.09C1081.69 94.7033 1077.79 94.01 1072.07 94.01C1065.05 94.01 1058.16 95.0933 1051.4 97.26V83.74C1054.43 82.5267 1058.12 81.53 1062.45 80.75C1066.87 79.97 1071.51 79.58 1076.36 79.58C1085.89 79.58 1093.35 81.53 1098.72 85.43C1104.18 89.33 1106.91 95.5267 1106.91 104.02V142.5H1088.58L1087.54 137.3C1085.29 139.38 1082.38 140.983 1078.83 142.11C1075.36 143.237 1071.03 143.8 1065.83 143.8ZM1072.46 130.93C1075.75 130.93 1078.61 130.367 1081.04 129.24C1083.47 128.113 1085.42 126.683 1086.89 124.95V116.24H1072.07C1065.92 116.24 1062.84 118.71 1062.84 123.65C1062.84 125.903 1063.62 127.68 1065.18 128.98C1066.74 130.28 1069.17 130.93 1072.46 130.93ZM1119.46 170.58V80.88H1137.66L1138.7 86.21C1141.22 84.13 1144.03 82.5267 1147.15 81.4C1150.27 80.1867 1153.91 79.58 1158.07 79.58C1166.83 79.58 1173.76 81.9633 1178.87 86.73C1183.99 91.41 1186.54 99.2967 1186.54 110.39C1186.54 121.397 1183.9 129.717 1178.61 135.35C1173.41 140.983 1166.22 143.8 1157.03 143.8C1150.53 143.8 1144.99 142.457 1140.39 139.77V170.58H1119.46ZM1151.7 128.46C1160.72 128.46 1165.22 122.307 1165.22 110C1165.22 104.107 1164.18 100.12 1162.1 98.04C1160.02 95.96 1156.69 94.92 1152.09 94.92C1147.67 94.92 1143.77 96.48 1140.39 99.6V124.56C1142.04 125.773 1143.69 126.727 1145.33 127.42C1147.07 128.113 1149.19 128.46 1151.7 128.46Z" fill="#15BFFD"/>
</svg>
